<svg xmlns="http://www.w3.org/2000/svg" xmlns:xlink="http://www.w3.org/1999/xlink" viewBox="0 0 188.53 187.93"><defs><style>.cls-1{fill:none;}.cls-2{clip-path:url(#clip-path);}.cls-3{fill:#1c9ad6;}</style><clipPath id="clip-path" transform="translate(0 0)"><rect class="cls-1" width="188.53" height="187.93"/></clipPath></defs><g id="Layer_2" data-name="Layer 2"><g id="Layer_1-2" data-name="Layer 1"><g id="Circle_CMYK" data-name="Circle CMYK"><g class="cls-2"><g class="cls-2"><path class="cls-3" d="M48.82,162a12.29,12.29,0,0,0-2.88-1c-2.43-.5-5.29.14-6.65,2.21-2.58,3.92,1.71,8.72,5.71,11.17,29.64,18.18,69.56,18.06,99.09-.32s47.28-54.12,44.06-88.75S160.9,18.8,128.49,6.19C81.57-12.08,26.75,11.58,7.34,57.76A93.64,93.64,0,0,0,.42,85.05a95.06,95.06,0,0,0,18.51,65.6c1.76,2.34,4.16,4.82,7.07,4.5,3.2-.35,5.06-4.12,4.63-7.31s-2.44-5.91-4.23-8.59C8.76,112.82,8.58,75.83,26,49.22S77.31,7.93,108.6,13.48s58.13,31,65.32,62-5.7,65.63-31.35,84.4-62.6,20.53-89.93,4.3c-1.25-.75-2.51-1.53-3.82-2.15" transform="translate(0 0)"/></g></g></g></g></g></svg>