<!-- Generator: Adobe Illustrator 25.0.0, SVG Export Plug-In  -->
<svg version="1.1" xmlns="http://www.w3.org/2000/svg" xmlns:xlink="http://www.w3.org/1999/xlink" x="0px" y="0px"
	 width="188.53px" height="187.93px" viewBox="0 0 188.53 187.93"
	 style="overflow:visible;enable-background:new 0 0 188.53 187.93;" xml:space="preserve">
<style type="text/css">
	.st0{opacity:0.25;}
	.st1{clip-path:url(#SVGID_3_);}
	.st2{clip-path:url(#SVGID_4_);fill:#1C9AD6;}
	.st3{clip-path:url(#SVGID_6_);}
	.st4{clip-path:url(#SVGID_8_);fill:#1C9AD6;}
</style>
<defs>
</defs>
<g id="Circle_CMYK_1_" class="st0">
	<g>
		<defs>
			<rect id="SVGID_1_" width="188.53" height="187.93"/>
		</defs>
		<clipPath id="SVGID_3_">
			<use xlink:href="#SVGID_1_"  style="overflow:visible;"/>
		</clipPath>
		<g class="st1">
			<defs>
				<rect id="SVGID_2_" width="188.53" height="187.93"/>
			</defs>
			<clipPath id="SVGID_4_">
				<use xlink:href="#SVGID_2_"  style="overflow:visible;"/>
			</clipPath>
			<path class="st2" d="M48.82,162c-0.93-0.44-1.88-0.8-2.89-1c-2.43-0.49-5.29,0.14-6.65,2.21c-2.58,3.92,1.71,8.71,5.71,11.17
				c29.64,18.19,69.56,18.06,99.09-0.31c29.53-18.37,47.28-54.13,44.06-88.76c-3.22-34.63-27.25-66.5-59.66-79.12
				C81.57-12.08,26.75,11.58,7.34,57.76c-3.65,8.69-6.02,17.91-6.92,27.29c-2.22,23.14,4.52,47.03,18.51,65.59
				c1.76,2.34,4.16,4.83,7.07,4.51c3.2-0.35,5.06-4.13,4.63-7.32c-0.43-3.19-2.44-5.91-4.22-8.58
				C8.76,112.82,8.58,75.83,25.97,49.22C43.36,22.62,77.31,7.93,108.6,13.48c31.3,5.55,58.13,31.01,65.31,61.97
				c7.18,30.96-5.7,65.63-31.35,84.4c-25.66,18.76-62.6,20.53-89.93,4.3C51.39,163.4,50.13,162.62,48.82,162"/>
		</g>
	</g>
</g>
</svg>
